<svg xmlns="http://www.w3.org/2000/svg" width="600" height="400" viewBox="0 0 600 400" fill="none">
  <rect width="600" height="400" fill="#e5e7eb"/>
  <rect x="100" y="80" width="400" height="240" rx="12" fill="#f3f4f6"/>
  <path d="M300 200 L360 140 L400 180 L440 140 L480 180 L440 220 L400 180 L360 220 L300 160 L260 200 L220 160 L180 200 L140 160 L100 200 L140 240 L180 200 L220 240 L260 200 L300 240 L340 200 L300 160 Z" fill="#d1d5db"/>
  <circle cx="420" cy="120" r="20" fill="#f97316"/>
  <rect x="150" y="280" width="300" height="10" rx="5" fill="#d1d5db"/>
  <rect x="150" y="310" width="200" height="10" rx="5" fill="#d1d5db"/>
  <path d="M300 70 L320 110 L280 110 Z" fill="#4f46e5"/>
</svg> 